<mxfile host="drawio-plugin" modified="2023-10-11T18:09:20.997Z" agent="5.0 (Windows NT 10.0; Win64; x64) AppleWebKit/537.36 (KHTML, like Gecko) Chrome/111.0.0.0 Safari/537.36" etag="AaYPCMgTyhvapKY0nGiZ" version="20.5.3" type="embed"><diagram name="Page-1" id="OmL_BDpDbVxm8sVSn2Uc"><mxGraphModel dx="1077" dy="519" grid="1" gridSize="10" guides="1" tooltips="1" connect="1" arrows="1" fold="1" page="1" pageScale="1" pageWidth="850" pageHeight="1100" math="0" shadow="0"><root><mxCell id="0"/><mxCell id="1" parent="0"/><mxCell id="27" style="edgeStyle=orthogonalEdgeStyle;rounded=0;orthogonalLoop=1;jettySize=auto;html=1;exitX=0;exitY=1;exitDx=0;exitDy=0;" edge="1" parent="1" source="2" target="26"><mxGeometry relative="1" as="geometry"/></mxCell><mxCell id="2" value="" style="shape=process;whiteSpace=wrap;html=1;backgroundOutline=1;size=0.08333333333333333;" vertex="1" parent="1"><mxGeometry x="350" y="240" width="120" height="60" as="geometry"/></mxCell><mxCell id="3" value="MEMBER" style="text;html=1;strokeColor=none;fillColor=none;align=center;verticalAlign=middle;whiteSpace=wrap;rounded=0;" vertex="1" parent="1"><mxGeometry x="357.5" y="247.5" width="105" height="45" as="geometry"/></mxCell><mxCell id="4" value="" style="shape=process;whiteSpace=wrap;html=1;backgroundOutline=1;" vertex="1" parent="1"><mxGeometry x="500" y="35" width="120" height="60" as="geometry"/></mxCell><mxCell id="5" value="USER" style="text;html=1;strokeColor=none;fillColor=none;align=center;verticalAlign=middle;whiteSpace=wrap;rounded=0;" vertex="1" parent="1"><mxGeometry x="530" y="50" width="60" height="30" as="geometry"/></mxCell><mxCell id="6" value="" style="endArrow=classic;html=1;rounded=0;" edge="1" parent="1"><mxGeometry width="50" height="50" relative="1" as="geometry"><mxPoint x="420" y="220" as="sourcePoint"/><mxPoint x="490" y="120" as="targetPoint"/><Array as="points"/></mxGeometry></mxCell><mxCell id="7" value="IS-A" style="text;html=1;strokeColor=none;fillColor=none;align=center;verticalAlign=middle;whiteSpace=wrap;rounded=0;" vertex="1" parent="1"><mxGeometry x="390" y="140" width="60" height="30" as="geometry"/></mxCell><mxCell id="11" value="" style="shape=process;whiteSpace=wrap;html=1;backgroundOutline=1;" vertex="1" parent="1"><mxGeometry x="650" y="240" width="120" height="60" as="geometry"/></mxCell><mxCell id="8" value="TRAINER" style="text;html=1;strokeColor=none;fillColor=none;align=center;verticalAlign=middle;whiteSpace=wrap;rounded=0;" vertex="1" parent="1"><mxGeometry x="657.5" y="247.5" width="105" height="45" as="geometry"/></mxCell><mxCell id="12" value="" style="endArrow=classic;html=1;rounded=0;" edge="1" parent="1"><mxGeometry width="50" height="50" relative="1" as="geometry"><mxPoint x="700" y="220" as="sourcePoint"/><mxPoint x="620" y="120" as="targetPoint"/><Array as="points"/></mxGeometry></mxCell><mxCell id="13" value="IS-A" style="text;html=1;strokeColor=none;fillColor=none;align=center;verticalAlign=middle;whiteSpace=wrap;rounded=0;" vertex="1" parent="1"><mxGeometry x="670" y="140" width="60" height="30" as="geometry"/></mxCell><mxCell id="14" value="" style="shape=process;whiteSpace=wrap;html=1;backgroundOutline=1;" vertex="1" parent="1"><mxGeometry x="80" y="232.5" width="120" height="60" as="geometry"/></mxCell><mxCell id="15" value="FitnessClass" style="text;html=1;strokeColor=none;fillColor=none;align=center;verticalAlign=middle;whiteSpace=wrap;rounded=0;" vertex="1" parent="1"><mxGeometry x="85" y="247.5" width="110" height="30" as="geometry"/></mxCell><mxCell id="31" style="edgeStyle=orthogonalEdgeStyle;rounded=0;orthogonalLoop=1;jettySize=auto;html=1;exitX=1;exitY=0;exitDx=0;exitDy=0;" edge="1" parent="1" source="16" target="30"><mxGeometry relative="1" as="geometry"/></mxCell><mxCell id="16" value="" style="shape=process;whiteSpace=wrap;html=1;backgroundOutline=1;" vertex="1" parent="1"><mxGeometry x="75" y="80" width="120" height="60" as="geometry"/></mxCell><mxCell id="17" value="Activity" style="text;html=1;strokeColor=none;fillColor=none;align=center;verticalAlign=middle;whiteSpace=wrap;rounded=0;" vertex="1" parent="1"><mxGeometry x="105" y="95" width="60" height="30" as="geometry"/></mxCell><mxCell id="18" value="" style="endArrow=classic;html=1;rounded=0;" edge="1" parent="1"><mxGeometry width="50" height="50" relative="1" as="geometry"><mxPoint x="140" y="220" as="sourcePoint"/><mxPoint x="140" y="160" as="targetPoint"/><Array as="points"/></mxGeometry></mxCell><mxCell id="19" value="IS-A" style="text;html=1;strokeColor=none;fillColor=none;align=center;verticalAlign=middle;whiteSpace=wrap;rounded=0;" vertex="1" parent="1"><mxGeometry x="140" y="170" width="60" height="30" as="geometry"/></mxCell><mxCell id="26" value="" style="shape=process;whiteSpace=wrap;html=1;backgroundOutline=1;size=0.08333333333333333;" vertex="1" parent="1"><mxGeometry x="220" y="340" width="120" height="60" as="geometry"/></mxCell><mxCell id="28" value="PERSONAL&lt;br&gt;DETAILS" style="text;html=1;strokeColor=none;fillColor=none;align=center;verticalAlign=middle;whiteSpace=wrap;rounded=0;" vertex="1" parent="1"><mxGeometry x="227.5" y="347.5" width="105" height="45" as="geometry"/></mxCell><mxCell id="29" value="HAS" style="text;html=1;strokeColor=none;fillColor=none;align=center;verticalAlign=middle;whiteSpace=wrap;rounded=0;" vertex="1" parent="1"><mxGeometry x="280" y="290" width="60" height="30" as="geometry"/></mxCell><mxCell id="30" value="" style="shape=process;whiteSpace=wrap;html=1;backgroundOutline=1;" vertex="1" parent="1"><mxGeometry x="237.5" y="20" width="120" height="60" as="geometry"/></mxCell><mxCell id="32" value="SCHEDULE" style="text;html=1;strokeColor=none;fillColor=none;align=center;verticalAlign=middle;whiteSpace=wrap;rounded=0;" vertex="1" parent="1"><mxGeometry x="245" y="27.5" width="105" height="45" as="geometry"/></mxCell><mxCell id="33" value="HAS-A" style="text;html=1;strokeColor=none;fillColor=none;align=center;verticalAlign=middle;whiteSpace=wrap;rounded=0;" vertex="1" parent="1"><mxGeometry x="135" y="35" width="60" height="30" as="geometry"/></mxCell></root></mxGraphModel></diagram></mxfile>